<?xml version="1.0" standalone="no"?>
<!DOCTYPE svg PUBLIC "-//W3C//DTD SVG 20010904//EN"
 "http://www.w3.org/TR/2001/REC-SVG-20010904/DTD/svg10.dtd">
<svg version="1.0" xmlns="http://www.w3.org/2000/svg"
 width="1280.000000pt" height="720.000000pt" viewBox="0 0 1280.000000 720.000000"
 preserveAspectRatio="xMidYMid meet">
<metadata>
Created by potrace 1.15, written by Peter Selinger 2001-2017
</metadata>
<g transform="translate(0.000000,720.000000) scale(0.100000,-0.100000)"
fill="#000000" stroke="none">
<path d="M9645 5750 c-93 -16 -341 -56 -550 -89 -209 -34 -390 -64 -402 -66
l-23 -5 0 -476 0 -477 103 7 c56 4 116 9 132 11 17 2 68 6 115 10 94 6 128 9
375 30 94 8 206 17 250 20 158 11 204 17 207 29 2 6 5 59 7 119 2 84 0 107
-11 107 -7 0 -51 -4 -98 -10 -47 -5 -159 -16 -250 -25 -91 -9 -181 -18 -200
-20 -19 -2 -70 -7 -112 -11 l-78 -6 0 95 0 95 28 6 c15 3 72 10 127 16 55 6
116 13 135 15 19 2 98 11 175 20 77 8 155 17 173 20 l32 6 0 104 c0 94 -2 105
-17 105 -10 -1 -160 -20 -333 -43 l-315 -43 -3 74 c-2 41 -1 77 2 79 3 3 165
28 361 56 l355 51 0 113 c0 62 -3 113 -7 112 -5 0 -84 -14 -178 -29z"/>
<path d="M8165 5510 c-88 -16 -168 -29 -177 -29 -16 -1 -18 -22 -20 -246 l-3
-245 -120 96 c-66 53 -183 144 -259 202 l-139 105 -111 -17 c-61 -9 -153 -24
-203 -33 l-93 -16 0 -407 c0 -224 2 -409 4 -411 5 -5 344 19 383 27 23 4 23 5
25 236 l3 231 155 -123 c85 -68 196 -158 245 -200 50 -41 97 -81 106 -88 14
-10 52 -10 199 3 99 8 190 15 201 15 19 0 19 11 19 465 l0 465 -27 -1 c-16 -1
-100 -14 -188 -29z"/>
<path d="M6517 5245 c-109 -19 -205 -36 -213 -39 -12 -5 -14 -61 -14 -380 1
-253 4 -376 11 -378 6 -2 50 0 97 4 48 4 121 10 162 13 41 3 96 8 123 11 l47
6 0 399 c0 219 -3 398 -7 398 -5 -1 -97 -16 -206 -34z"/>
<path d="M5165 5026 l-190 -31 -3 -328 -2 -327 27 0 c27 0 443 32 638 50 61 5
153 13 205 16 52 4 127 10 165 13 l70 6 3 93 3 93 -48 -6 c-62 -7 -430 -44
-508 -51 -33 -2 -75 -7 -92 -10 l-33 -5 0 261 0 260 -22 -1 c-13 -1 -108 -16
-213 -33z"/>
<path d="M4475 4914 c-77 -13 -155 -26 -172 -29 l-33 -6 0 -164 c0 -91 -2
-165 -5 -165 -3 0 -67 31 -143 69 -185 92 -365 171 -392 171 -20 0 -305 -44
-362 -56 l-28 -6 0 -262 0 -262 88 8 c48 3 134 10 192 14 58 3 108 8 113 11 4
2 7 71 7 154 0 82 4 149 8 149 5 0 125 -59 268 -130 l259 -131 135 11 c74 6
146 13 160 15 14 2 44 4 68 4 l42 1 0 315 0 315 -32 -1 c-18 -1 -96 -12 -173
-25z"/>
<path d="M2582 4609 c-117 -10 -354 -52 -483 -84 -285 -72 -449 -169 -449
-263 0 -104 163 -154 495 -151 301 3 527 33 695 91 147 52 228 115 249 194 44
165 -144 244 -507 213z m8 -134 c71 -17 95 -104 45 -163 -46 -55 -187 -92
-348 -92 -149 0 -207 26 -207 94 0 43 28 78 86 105 112 53 321 80 424 56z"/>
<path d="M10880 4242 c-68 -2 -107 -7 -112 -15 -4 -7 -7 -91 -7 -187 0 -96 0
-181 0 -187 -1 -10 -55 -13 -236 -13 l-235 0 0 190 0 190 -67 -5 c-83 -6 -263
-14 -320 -15 l-43 0 0 -524 0 -524 93 -6 c50 -3 147 -8 215 -12 l122 -5 0 221
0 220 237 -2 236 -3 -2 -227 -3 -228 49 0 c26 -1 98 -3 158 -6 61 -3 138 -6
173 -8 l62 -3 0 579 0 579 -107 -3 c-60 -2 -155 -4 -213 -6z"/>
<path d="M8885 4173 c-217 -28 -364 -94 -427 -192 -26 -41 -29 -53 -26 -107 3
-49 10 -69 32 -98 68 -89 179 -131 541 -200 119 -24 151 -34 185 -62 55 -46
34 -109 -45 -139 -34 -13 -65 -16 -127 -13 -121 7 -187 46 -223 132 l-16 39
-82 -7 c-45 -3 -135 -6 -199 -6 -116 0 -118 0 -118 -22 0 -41 48 -127 96 -173
109 -106 300 -157 599 -158 249 -1 369 31 473 126 120 111 124 283 9 382 -86
74 -197 110 -474 155 -100 17 -193 34 -205 39 -59 22 -63 74 -8 105 45 27 189
29 235 4 37 -20 71 -56 80 -86 4 -15 12 -21 23 -18 9 3 76 7 147 11 129 6 238
14 242 18 1 1 -6 25 -16 53 -37 109 -127 178 -273 208 -72 15 -335 21 -423 9z"/>
<path d="M7994 4123 c-5 -1 -68 -3 -141 -5 -73 -2 -136 -7 -140 -12 -10 -10
-15 -864 -5 -870 4 -2 103 -7 220 -11 l212 -7 0 457 0 456 -69 -2 c-38 -2 -73
-4 -77 -6z"/>
<path d="M6758 4075 c-3 -2 -295 -14 -355 -15 l-23 0 0 -384 0 -384 53 -5 c28
-4 149 -9 267 -13 118 -3 231 -8 250 -9 40 -3 459 -20 505 -20 l30 0 3 99 c2
71 -1 102 -10 107 -6 4 -109 8 -228 8 -118 1 -266 4 -327 7 l-113 7 0 302 0
303 -25 0 c-13 0 -25 -2 -27 -3z"/>
<path d="M5370 4029 c-232 -16 -430 -68 -544 -144 -232 -154 -157 -395 156
-500 177 -59 543 -89 768 -64 81 9 284 55 343 78 l28 11 -3 157 -3 158 -100 3
c-55 2 -205 0 -332 -3 l-233 -7 0 -69 0 -69 68 -1 c37 0 88 0 115 1 26 1 61
-1 78 -5 27 -6 30 -10 27 -38 -3 -30 -6 -33 -73 -49 -86 -20 -278 -23 -356 -4
-81 18 -143 58 -164 103 -33 70 -19 170 31 214 105 92 384 107 481 25 l28 -23
197 22 c109 12 201 25 205 28 13 14 -54 81 -113 114 -32 18 -90 40 -129 48
-81 19 -304 25 -475 14z"/>
<path d="M4165 3970 l-120 -5 -3 -157 c-1 -87 -4 -158 -7 -158 -2 0 -64 35
-137 78 -73 43 -189 109 -257 147 l-124 68 -161 -6 c-88 -4 -180 -7 -203 -7
l-43 0 0 -255 0 -255 38 -1 c20 0 64 -2 97 -4 33 -2 108 -6 168 -9 l107 -5 0
149 0 149 123 -71 c67 -39 185 -111 262 -159 l140 -88 195 -7 c107 -3 198 -8
203 -11 4 -2 7 136 7 307 l0 311 -82 -3 c-46 -2 -137 -5 -203 -8z"/>
<path d="M2777 3914 c-1 -1 -101 -5 -222 -8 -121 -4 -240 -9 -265 -11 -25 -2
-137 -7 -250 -11 -113 -4 -216 -8 -230 -9 -14 -2 -44 -4 -68 -4 l-42 -1 2
-197 3 -198 25 -1 c78 -2 420 -15 510 -19 58 -3 159 -7 225 -10 66 -2 186 -8
268 -11 l147 -7 0 57 0 56 -72 0 c-40 1 -136 3 -213 5 -77 3 -212 7 -300 9
l-160 3 -3 42 -3 41 341 0 341 0 -3 47 -3 48 -337 -4 -338 -3 0 36 0 36 173 1
c94 0 190 1 212 3 22 1 109 3 193 4 l152 2 0 55 0 55 -41 -3 c-22 -1 -41 -3
-42 -3z"/>
<path d="M1600 3237 c0 -52 -2 -52 135 -62 44 -4 130 -12 190 -18 l110 -12 5
-159 5 -160 205 -33 c112 -18 211 -31 218 -28 10 4 13 40 12 157 -1 84 -1 159
0 166 0 11 12 12 48 8 26 -3 74 -8 107 -12 33 -3 96 -9 140 -15 44 -5 94 -9
112 -9 l33 0 0 60 0 60 -42 1 c-24 0 -54 2 -68 4 -14 2 -86 9 -160 15 -74 6
-160 13 -190 15 -30 2 -116 9 -190 15 -74 6 -153 12 -175 15 -22 2 -85 7 -140
11 -55 3 -107 8 -115 9 -9 2 -66 6 -128 10 l-112 8 0 -46z"/>
<path d="M3110 2905 c0 -196 3 -255 12 -255 11 0 696 -110 1053 -169 l110 -18
3 65 c2 35 1 66 -1 69 -3 2 -171 28 -373 57 l-369 52 -3 52 c-3 49 -2 52 21
52 13 0 160 -18 327 -40 167 -22 308 -40 315 -40 10 0 13 105 3 116 -3 3 -84
14 -179 24 -96 11 -192 22 -214 24 -55 7 -149 18 -215 25 l-55 6 -3 43 c-2 30
1 42 11 42 13 0 369 -35 457 -45 81 -9 235 -25 248 -25 8 0 12 20 12 65 l0 65
-32 1 c-18 0 -51 2 -73 5 -33 3 -306 26 -725 59 -36 3 -114 10 -175 15 -60 6
-120 10 -132 10 l-23 0 0 -255z"/>
<path d="M4710 3010 c-120 -21 -183 -52 -205 -102 -23 -56 12 -111 100 -155
86 -44 174 -73 389 -129 223 -58 289 -85 294 -121 6 -41 -36 -56 -141 -51
-141 7 -268 62 -283 123 -3 14 -11 25 -18 25 -6 0 -92 9 -191 20 -234 26 -216
26 -204 -10 15 -40 117 -133 181 -163 199 -94 650 -172 842 -145 151 21 236
78 236 159 0 135 -143 213 -568 308 -100 22 -196 48 -212 56 -64 33 -22 68 81
67 118 -1 207 -36 244 -94 8 -12 34 -18 110 -22 173 -11 249 -17 273 -22 56
-11 -6 96 -85 146 -82 52 -230 90 -432 110 -117 11 -344 11 -411 0z"/>
<path d="M5830 2851 c0 -50 3 -91 8 -91 4 0 95 -9 202 -20 107 -11 203 -20
213 -20 16 0 17 -20 17 -288 l0 -289 213 -34 212 -34 3 297 2 298 28 0 c15 0
110 -9 212 -20 102 -11 188 -20 193 -20 4 0 7 46 7 103 l0 103 -167 13 c-93 7
-242 19 -333 26 -91 8 -194 17 -230 20 -36 2 -150 12 -255 20 -104 8 -220 18
-257 21 l-68 6 0 -91z"/>
<path d="M7633 2789 c-164 -15 -277 -72 -308 -154 -23 -59 -10 -110 46 -170
68 -74 185 -127 451 -206 184 -54 230 -73 266 -112 30 -32 26 -64 -11 -91 -23
-17 -42 -21 -105 -20 -135 2 -241 54 -282 138 -17 37 -28 46 -53 51 -30 5
-345 35 -367 35 -6 0 -8 -11 -4 -27 26 -106 140 -219 277 -274 224 -91 622
-142 772 -100 134 38 215 123 215 226 0 60 -19 104 -71 160 -77 83 -194 136
-451 205 -231 62 -255 70 -278 95 -65 69 92 109 232 59 48 -16 83 -46 104 -86
16 -31 34 -35 214 -43 69 -3 142 -8 163 -11 46 -7 48 7 13 81 -23 51 -74 104
-136 142 -119 73 -456 123 -687 102z"/>
</g>
</svg>
